<svg width="64" height="64" viewBox="0 0 64 64" fill="none" xmlns="http://www.w3.org/2000/svg">
<rect width="64" height="64" rx="8" fill="#2F3B46"/>
<g clip-path="url(#clip0)">
<path fill-rule="evenodd" clip-rule="evenodd" d="M59.2735 30.5295L60 28.1903L57.5949 28.2672C57.3931 28.2672 55.9149 28.2228 54.484 27.1797C54.5916 27.1886 54.6962 27.2049 54.8082 27.2049C56.2819 27.2049 57.7099 26.3112 58.2802 25.0329L59.3147 22.7248C58.0179 22.7425 56.8316 22.5783 56.8316 22.5783C56.8213 22.5783 55.8869 22.4555 54.8067 21.3443C54.0316 20.5498 53.0722 20.1281 52.0333 20.1281C51.6219 20.1297 51.2133 20.1951 50.8219 20.322C50.8764 20.1355 50.928 19.9447 50.9589 19.7494C51.2876 17.5892 49.9067 15.9439 49.9067 15.9439L48.0985 13.6921L46.9771 16.3375C46.9726 16.3464 46.6897 16.9678 46.1842 17.2696C46.0309 16.4914 45.6552 15.617 44.8535 14.781C43.34 13.2068 41.4994 12.97 40.5356 12.97C40.0891 12.97 39.7693 13.0203 39.6926 13.0322L37.5101 13.4642C37.6354 12.9745 37.9051 12.1178 38.3943 11.3499L39.5998 9.46347L36.5684 9.81117L35.6032 7.74866L33.7331 8.71777L32.0044 7L30.2802 8.71629L28.4072 7.74866L27.4434 9.80969L24.4135 9.46199L25.6204 11.3514C26.1112 12.1193 26.3779 12.9715 26.5032 13.4612L24.4208 13.047L24.3486 13.0366C24.061 12.9911 23.7703 12.9689 23.4792 12.97C22.5154 12.97 20.6747 13.2068 19.1657 14.781C18.3625 15.6155 17.9853 16.4914 17.832 17.2696C17.3295 16.9693 17.048 16.3597 17.048 16.3597L15.9251 13.6965L14.0874 15.9661C13.8634 16.2576 12.7566 17.8052 13.0558 19.7538C13.0882 19.9476 13.1383 20.137 13.1928 20.3234C12.8025 20.1962 12.3948 20.1308 11.9844 20.1296C10.944 20.1296 9.98463 20.5513 9.208 21.3458C8.13221 22.4525 7.20232 22.5783 7.20968 22.5783C7.20968 22.5783 6.22674 22.7558 4.70442 22.7263L5.73453 25.0344C6.30632 26.3127 7.73579 27.2064 9.20653 27.2064C9.31853 27.2064 9.42316 27.1901 9.53221 27.1812C8.10274 28.2258 6.62611 28.2687 6.44779 28.2687L4 28.1903L4.74126 30.528C5.11558 31.7353 6.36232 33.7312 8.74968 33.9458C8.49032 35.0406 7.91411 36.2687 6.64968 36.7984L4.82526 37.5529L5.82 39.2959C6.38147 40.2354 7.70042 41.3347 9.57642 41.3347C9.98168 41.3347 10.3737 41.2918 10.7524 41.2119C10.8482 41.641 10.9691 42.07 11.112 42.4991C11.6691 44.171 11.1886 45.3369 11.1827 45.3502L10.2838 47.247L12.2924 47.7797C12.3175 47.7885 12.9261 47.9572 13.6851 47.9572C14.0299 47.9572 14.36 47.9202 14.6695 47.8463C14.9023 47.7915 15.1263 47.7175 15.3429 47.6302C15.6038 48.0993 15.9192 48.5283 16.2876 48.9115C17.5756 50.2417 19.4029 50.9149 21.7137 50.9149H21.7211L23.3716 50.8927L19.9615 52.319L22.5507 53.5781C23.4924 54.0397 24.6065 54.5842 25.7442 55.0014L25.42 55.8906L26.3116 56.3005C26.3912 56.3375 28.1095 57.1083 30.9611 57.2725C30.9611 57.2725 31.6493 57.3051 32.028 57.3051C32.4082 57.3051 33.0891 57.2711 33.0891 57.2711C35.9215 57.1024 37.6251 56.3375 37.7046 56.3005L38.5992 55.8906L38.2735 54.9999C39.4406 54.5709 40.5975 54.0027 41.5008 53.5603L44.0415 52.3175L40.6417 50.8927L42.2996 50.9149C44.6133 50.9149 46.4406 50.2402 47.7272 48.9101C48.0941 48.5283 48.408 48.1007 48.6703 47.6302C49.1963 47.8486 49.7605 47.9593 50.3297 47.9557C51.0768 47.9557 51.6914 47.79 51.7076 47.7841L53.7265 47.247L52.8467 45.3843C52.8261 45.3369 52.3457 44.171 52.9027 42.4962C53.0457 42.07 53.1651 41.6395 53.2623 41.2119C53.6411 41.2918 54.0375 41.3332 54.4457 41.3347C56.836 41.3347 57.9825 39.6436 58.2036 39.2766L59.1895 37.5515L57.3651 36.7984C56.0977 36.2702 55.5229 35.0421 55.2665 33.9487C57.6229 33.7416 58.8859 31.7442 59.2749 30.5309L59.2735 30.5295Z" fill="#FFFFFE"/>
<path fill-rule="evenodd" clip-rule="evenodd" d="M32.0044 14.1655C30.0739 14.167 28.6253 14.8032 28.3099 15.5533L32.0044 17.0181L35.7004 15.5533C35.388 14.8032 33.9394 14.167 32.0044 14.1655ZM32.0442 52.9877H31.9705C30.8004 52.9951 29.1867 52.7539 28.4116 52.5246L27.4773 55.068C28.0933 55.2884 30.18 55.7116 32.0088 55.7116C33.8347 55.7116 35.923 55.2884 36.5375 55.068L35.6046 52.5261C34.8251 52.7539 33.2143 52.9951 32.0442 52.9877ZM39.1135 50.4577C38.4179 50.8542 36.8661 51.449 35.9627 51.7242L36.7202 53.8252C38.1173 53.4405 39.2712 52.9922 40.2232 52.5113L38.6493 51.9861L39.1135 50.4577V50.4577ZM24.8998 50.4577L25.3655 51.9861L23.7901 52.5113C24.7406 52.9922 25.8989 53.4405 27.2916 53.8237L28.0505 51.7227C27.1486 51.4475 25.5939 50.8542 24.8998 50.4577V50.4577ZM32.0044 11.7346C33.4619 11.7346 34.8884 12.0852 35.9878 12.6993C36.088 12.3619 36.228 11.9506 36.4181 11.5201L36.0025 11.5704L35.5678 11.6147L35.3836 11.2167L34.8265 10.0375L33.8156 10.5672L33.4206 10.7684L33.1053 10.4577L32.0044 9.36285L30.9065 10.4577L30.5926 10.7684L30.1992 10.5672L29.1823 10.0375L28.6326 11.2167L28.4455 11.6162L28.0093 11.5704L27.5966 11.5201C27.7867 11.9506 27.9253 12.3619 28.027 12.6993C29.1293 12.0852 30.5558 11.7346 32.0059 11.7346H32.0044ZM54.235 25.3717C54.4251 25.4368 54.6166 25.4664 54.8067 25.4664C55.632 25.4664 56.4278 24.9293 56.7004 24.3168C56.7004 24.3168 55.1899 24.225 53.5659 22.5665C53.0501 22.0309 52.5019 21.8696 52.0333 21.8696C51.3038 21.8696 50.7556 22.2558 50.7556 22.2558C52.7185 23.3062 53.1179 24.9929 54.235 25.3717V25.3717ZM9.20653 25.4649C9.39811 25.4649 9.58968 25.4368 9.77389 25.3702C10.8939 24.9915 11.2977 23.3062 13.2562 22.2572C13.2562 22.2572 12.708 21.8696 11.9829 21.8696C11.5114 21.8696 10.9646 22.0294 10.4459 22.5679C8.82337 24.225 7.31432 24.3183 7.31432 24.3183C7.58547 24.9293 8.38274 25.4664 9.20653 25.4664V25.4649Z" fill="#FFFFFE"/>
<path fill-rule="evenodd" clip-rule="evenodd" d="M53.644 37.4716C52.1261 36.717 51.1682 34.7196 50.9354 34.0005C50.6848 37.9628 48.7617 40.7118 46.5143 43.3573C45.3472 44.7303 44.9404 46.0648 44.9404 46.0648C44.9404 46.0648 45.1659 44.5527 46.1739 43.3217C48.2709 40.7887 50.2634 37.6343 50.4122 33.9857C50.5139 31.4409 49.864 29.3769 48.8472 27.6754C49.416 29.4464 49.3349 31.6169 47.4059 33.6425C47.4059 33.6425 51.2478 29.0144 45.8777 24.268C43.729 22.4629 41.377 21.3473 40.1672 20.5572C44.5396 21.9924 46.6764 20.4122 46.6764 20.4122C45.2794 21.6299 43.4712 21.6092 42.3497 21.4331C42.6547 21.5826 42.9716 21.7394 43.3105 21.9214C46.9992 23.9365 50.312 27.2522 50.8779 31.8418V31.8063C51.7341 36.3145 53.644 37.4716 53.644 37.4716ZM54.7669 32.2191C54.8008 32.2221 54.8303 32.2221 54.8642 32.2221C56.92 32.2221 57.6156 30.0072 57.6156 30.0072H57.5758C57.1985 30.0072 54.1421 29.9184 51.9817 27.1561C50.561 25.3406 49.3954 23.7442 47.0935 23.1169L46.8665 23.0754L46.8179 22.8431C46.7545 22.4895 46.9947 22.1581 47.5429 21.8015C50.7187 19.7094 48.5598 17.0403 48.5598 17.0403C48.5598 17.0403 47.6549 19.1738 45.6257 19.1738L45.4739 19.1709C45.244 19.159 45.0215 19.1516 44.7975 19.1028L44.4232 19.0288C44.4232 19.0288 45.0023 17.4457 43.6053 15.9943C42.5545 14.8964 41.2739 14.71 40.5356 14.71C40.1627 14.71 39.9269 14.7588 39.9269 14.7588C40.6284 15.6806 41.1354 17.2119 40.3248 18.1559C39.6248 18.9667 37.9154 19.0066 37.9154 20.2169C37.9154 20.7288 38.3914 21.3266 39.2461 21.8637C41.8162 23.4912 44.3672 25.6513 45.4282 28.5468C46.7545 32.157 45.2602 34.5539 43.1293 35.9284C43.1293 35.9284 43.7983 36.5468 44.7665 36.6267C44.964 36.646 45.157 36.6548 45.3368 36.6548C47.3838 36.6548 48.4419 35.6887 48.4419 35.6887C48.4419 35.6887 48.2665 37.0233 47.204 38.2616C46.2196 39.4039 44.9301 40.0785 42.9627 40.1067C42.9627 40.1067 42.9008 41.024 43.7718 41.82C44.3303 42.3216 45.6168 42.4858 45.6168 42.4858C45.6168 42.4858 43.2059 42.9755 42.9392 46.5575C42.7947 48.4987 42.3025 49.1719 42.3025 49.1719H42.3453C47.9394 49.1719 47.7964 44.3456 47.7964 44.3456C47.7964 44.3456 48.1855 45.7749 49.7461 46.1477C49.9347 46.198 50.1366 46.2172 50.3282 46.2172C50.8293 46.2172 51.2669 46.0989 51.2669 46.0989C51.2669 46.0989 50.449 44.3648 51.2596 41.9398C51.933 39.9262 51.824 38.4348 51.824 38.4348C51.824 38.4348 52.577 39.5814 54.4472 39.5918H54.4663C54.9081 39.5986 55.3444 39.4935 55.7349 39.2861C56.1254 39.0786 56.4575 38.7757 56.7004 38.4052C52.9705 36.8472 53.3389 31.8211 53.3389 31.8211C53.3389 31.8211 53.8223 32.1851 54.7669 32.2206V32.2191ZM17.4989 43.3573C15.2516 40.7118 13.3284 37.9628 13.0749 34.0005C12.8436 34.7211 11.8872 36.7185 10.3707 37.4716C10.3707 37.4716 12.2777 36.3145 13.1339 31.8063V31.8418C13.7013 27.2522 17.0141 23.9365 20.7027 21.9229C21.0417 21.7379 21.36 21.5826 21.6621 21.4346C20.5421 21.6092 18.7324 21.6299 17.3368 20.4137C17.3368 20.4137 19.4737 21.9924 23.8446 20.5572C22.6362 21.3473 20.2842 22.4629 18.137 24.268C12.7655 29.0144 16.6074 33.6425 16.6074 33.6425C14.6768 31.6155 14.5973 29.4479 15.1661 27.6754C14.1493 29.3769 13.4979 31.4409 13.604 33.9872C13.7499 37.6343 15.7408 40.7887 17.8335 43.3232C18.8474 44.5513 19.0758 46.0634 19.0758 46.0634C19.0758 46.0634 18.6632 44.7303 17.4989 43.3573ZM18.3979 42.4843C18.3979 42.4843 19.6844 42.3216 20.2429 41.8185C21.1124 41.024 21.052 40.1067 21.052 40.1067C19.0832 40.0785 17.7952 39.4039 16.8063 38.2616C15.7482 37.0233 15.5714 35.6887 15.5714 35.6887C15.5714 35.6887 16.6295 36.6548 18.6735 36.6548C18.8577 36.6548 19.0493 36.646 19.2453 36.6267C19.85 36.5652 20.4222 36.3218 20.8869 35.9284C18.753 34.5539 17.2587 32.157 18.5836 28.5454C19.6446 25.6528 22.1941 23.4912 24.7672 21.8622C25.6204 21.3266 26.0949 20.7288 26.0949 20.2169C26.0949 19.0066 24.3884 18.9667 23.6884 18.1559C22.8779 17.2119 23.3863 15.6806 24.0863 14.7588C24.0863 14.7588 23.852 14.71 23.4777 14.71C22.7408 14.71 21.4602 14.8964 20.408 15.9943C19.008 17.4472 19.5901 19.0303 19.5901 19.0303L19.2158 19.1043C18.9933 19.1502 18.7678 19.159 18.5379 19.1723L18.3905 19.1738C16.3568 19.1738 15.4535 17.0418 15.4535 17.0418C15.4535 17.0418 13.2975 19.7094 16.4733 21.8015C17.0185 22.1581 17.2587 22.491 17.1954 22.8431L17.1467 23.074L16.9154 23.1154C14.6179 23.7442 13.4522 25.3406 12.0286 27.1561C9.8682 29.9184 6.81473 30.0072 6.43599 30.0072H6.39473C6.39473 30.0072 7.09178 32.2221 9.14905 32.2221C9.18147 32.2221 9.21094 32.2221 9.24631 32.2191C10.1909 32.1851 10.6758 31.8211 10.6758 31.8211C10.6758 31.8211 11.0413 36.8472 7.31283 38.4052C7.31283 38.4052 7.9922 39.5932 9.54841 39.5932H9.5661C11.4377 39.5814 12.1893 38.4348 12.1893 38.4348C12.1893 38.4348 12.0802 39.9276 12.7507 41.9398C13.5613 44.3663 12.7478 46.0974 12.7478 46.0974C12.7478 46.0974 13.1825 46.2158 13.685 46.2158C13.8796 46.2158 14.0785 46.198 14.2657 46.1477C15.8248 45.7749 16.2154 44.3456 16.2154 44.3456C16.2154 44.3456 16.0724 49.1719 21.668 49.1719H21.7093C21.7093 49.1719 21.2185 48.4987 21.0756 46.5575C20.8103 42.977 18.3964 42.4843 18.3964 42.4843H18.3979ZM30.7429 24.7H33.3808V25.6099C33.0714 25.2282 32.4672 25.3066 32.4672 25.3066V26.619C32.4672 26.619 32.4878 27.2641 32.7147 27.5437H31.409C31.6375 27.2641 31.6566 26.619 31.6566 26.619V25.3066C31.6566 25.3066 31.0554 25.2282 30.7429 25.6099V24.7V24.7ZM27.8693 24.8361C27.9606 24.9352 28.0505 25.0432 28.1375 25.1513C28.1581 25.1764 28.1773 25.1986 28.1979 25.2282C28.2789 25.3347 28.36 25.4501 28.4381 25.5655L28.4912 25.6439C28.584 25.786 28.6724 25.9325 28.7608 26.0849C29.5684 27.486 30.8594 28.3234 32.0044 28.3249C33.1524 28.3234 34.4419 27.486 35.2509 26.0849C35.3408 25.9295 35.4307 25.7786 35.525 25.6365C35.6326 25.4711 35.7477 25.3106 35.8699 25.1557C35.9598 25.0432 36.0526 24.9338 36.1469 24.8331C36.1632 24.8184 36.1764 24.8021 36.1926 24.7888C36.6053 24.3656 37.093 24.0431 37.7356 23.864L37.4497 23.6968H37.4349L36.2973 23.034L35.1316 22.3608L32.0133 24.0682L32.0044 24.0608L32 24.0682L28.8817 22.3608L27.7145 23.034L26.5768 23.6968H26.5636L26.2762 23.864C26.9173 24.0416 27.4065 24.3612 27.8192 24.7858C27.8368 24.8006 27.8486 24.8213 27.8693 24.8361V24.8361Z" fill="#FFFFFE"/>
<path fill-rule="evenodd" clip-rule="evenodd" d="M31.0126 18.9149V19.773L30.8491 19.6961C30.8417 19.6902 30.6 19.6369 30.183 19.3025C29.4918 18.764 29.4785 18.2669 29.4785 18.2669L31.0112 18.9149H31.0126ZM31.7347 22.9349V17.6055L28.363 16.4544L29.2531 21.6181L31.7362 22.9349H31.7347ZM33.0021 18.9149L34.5347 18.2669C34.5347 18.2669 34.5229 18.764 33.8288 19.3025C33.4118 19.6354 33.1716 19.6902 33.1642 19.6961L33.0021 19.7716V18.9149ZM34.7602 21.6195L35.6459 16.4559L32.2756 17.6055V22.9349L34.7602 21.6181V21.6195ZM26.9659 35.2892C27.2945 35.4076 27.6924 35.4327 27.8973 35.4327C27.9046 35.4076 27.9164 35.3765 27.9267 35.338C27.943 35.2788 27.9606 35.2167 27.9739 35.1516C28.0314 34.8557 28.0505 34.5228 28.0564 34.3068C27.868 34.1943 27.7144 34.0314 27.6128 33.8363C27.4876 33.5714 27.3093 33.4472 27.0484 33.4472C26.7095 33.4472 26.3455 33.6543 26.1878 33.749C26.064 34.4858 26.6048 35.1546 26.9659 35.2877V35.2892ZM34.4257 32.4618C33.8008 33.1468 32.5733 34.3408 32.5143 34.4L32.4406 34.474L28.5648 34.4133C28.5616 34.7352 28.5201 35.0556 28.4411 35.3676L28.4101 35.4904L33.0183 36.3249C33.4973 35.9876 34.8162 35.0184 35.3291 34.6382C34.9562 34.0908 34.9208 33.4412 35.0048 32.9855C34.7836 32.8452 34.5877 32.6681 34.4257 32.4618V32.4618Z" fill="#FFFFFE"/>
<path fill-rule="evenodd" clip-rule="evenodd" d="M34.9518 27.7745C34.0587 28.6652 33.2025 28.9952 32.4377 29.0721C32.2977 29.0873 32.157 29.0952 32.0162 29.0958H31.9971C31.7157 29.0957 31.4352 29.066 31.16 29.007C31.1099 29.2067 31.0465 29.6254 31.2278 30.022C31.3899 30.3815 31.7185 30.6493 32.199 30.8283L32.3611 30.8919L32.3625 31.0665C32.3625 31.1183 32.4009 32.2517 33.6299 32.5668C33.8303 32.3597 34.0131 32.1718 34.1457 32.0135C33.8952 31.4202 34.0278 30.8135 34.3918 30.5161C34.3771 30.5798 34.215 32.0667 35.4013 32.6201L35.5973 32.7133L35.5383 32.9219C35.5192 32.9855 35.1242 34.4251 36.5611 34.9607L36.8145 35.0584L36.7011 35.3055C36.676 35.3602 36.1131 36.6667 37.4394 37.4094H40.3145V35.1117C39.2918 34.9859 38.86 34.1588 38.748 33.5729C38.272 33.4915 37.9051 33.2859 37.6531 32.95C37.0488 32.1511 37.5676 31.4187 37.575 31.3787C37.5735 31.3846 37.575 32.1629 38.0524 32.6452C38.2897 32.876 38.5697 33.0565 38.9956 33.0965L39.2034 33.1157L39.2211 33.3303C39.2255 33.3761 39.339 34.4311 40.3145 34.5968L40.3131 29.9066C40.3131 29.1786 40.5238 28.4477 40.7773 27.773H34.9518V27.7745ZM27.2105 29.9243L27.1339 32.9101L27.4729 32.9633L28.2981 30.0974L27.8781 29.2156L27.212 29.9243H27.2105ZM28.9996 40.9826C28.9769 40.9818 28.9546 40.9765 28.9341 40.9668C28.9136 40.9572 28.8952 40.9434 28.8802 40.9263C28.8651 40.9093 28.8537 40.8894 28.8466 40.8677C28.8396 40.8461 28.8369 40.8232 28.839 40.8006C28.8403 40.7781 28.846 40.7562 28.8559 40.736C28.8657 40.7159 28.8795 40.6979 28.8964 40.6831C28.9133 40.6684 28.9329 40.6572 28.9542 40.6501C28.9755 40.6431 28.9979 40.6404 29.0202 40.6423C29.1175 40.6467 29.1853 40.731 29.1823 40.8228C29.1789 40.8682 29.1578 40.9104 29.1236 40.9403C29.0894 40.9702 29.0449 40.9854 28.9996 40.9826ZM36.312 43.6265C36.3371 43.6265 36.3665 43.6295 36.3931 43.6369C36.9089 43.7848 37.0371 45.6461 37.9375 45.8118C38.0259 45.8311 38.1084 45.8355 38.1792 45.8355C38.44 45.8355 38.5947 45.7245 38.7627 45.5248C38.7627 45.5248 38.3088 44.8102 37.9699 44.3264C37.5204 43.6931 37.1712 42.9282 36.3326 42.9282C36.312 42.9282 36.2884 42.9282 36.2663 42.9311C36.1066 42.9376 35.9522 42.99 35.8213 43.0821C35.5414 42.8962 35.2137 42.7959 34.8781 42.7935C34.355 42.7935 33.9453 43.0362 33.7404 43.0362H33.7331L31.8615 42.8498C31.5682 42.8202 31.3368 42.5243 31.2528 42.4089L31.2204 42.3585C31.2204 42.3068 31.2204 42.255 31.2175 42.2091C31.1541 40.6689 29.9693 40.0105 29.5463 39.9986C29.5463 39.9986 29.5964 39.7057 29.483 39.5947L29.0703 40.0978L27.7145 39.4142L28.6813 40.5505L27.8634 41.4753C27.7602 41.5803 27.7735 41.7223 27.8162 41.783L28.1699 42.0967L28.6179 41.8229C28.64 41.8067 28.6813 41.8008 28.7314 41.8008C28.8552 41.8008 29.0408 41.8333 29.2074 41.8333C29.3916 41.8333 29.5493 41.7948 29.5684 41.6217C29.5124 42.1928 28.9848 43.1856 29.3312 43.9653L29.5876 44.5542L27.9326 44.3145L27.1575 45.6299C26.9187 46.0678 26.8804 46.5413 27.1103 46.7987L27.4006 47.1642C27.4006 47.1642 27.8074 46.7307 27.8973 46.4451L27.7661 46.3001C27.6556 46.1773 27.6615 46.0678 27.7293 45.9361L28.2156 45.1253L30.1682 45.5884L30.2714 45.4109C30.404 45.1889 30.5956 45.1238 30.8048 45.1238C30.8918 45.1238 30.9802 45.1342 31.0716 45.149C31.4341 45.2215 32.031 45.3177 32.6278 45.3177C33.2836 45.3177 33.9335 45.1993 34.2798 44.8102C34.9872 45.8651 36.4225 46.0323 36.3091 46.5694L35.9318 48.3774C36.1823 48.3656 36.4225 48.3493 36.651 48.3182L37.0105 46.4377C37.0397 46.278 37.0652 46.1177 37.0872 45.9568C36.9486 45.8148 36.6141 45.5174 36.424 45.1549C36.172 44.6652 36.3091 44.4092 36.0733 43.773C36.0733 43.773 36.147 43.6251 36.312 43.6251V43.6265Z" fill="#FFFFFE"/>
<path fill-rule="evenodd" clip-rule="evenodd" d="M26.3307 45.3354C26.3307 45.3354 26.9791 45.0691 27.0381 44.8768L26.9497 44.6608C26.8892 44.5187 26.8966 44.3648 27.016 44.282L27.7145 43.7952L28.8831 44.0216C28.8831 44.0216 28.6709 43.7553 28.6916 43.4002L27.5775 43.1634L26.5252 43.807C26.3417 43.9437 26.209 44.1382 26.1483 44.3594C26.0877 44.5807 26.1026 44.816 26.1907 45.0277L26.3307 45.3369V45.3354ZM34.5937 48.4011C34.8015 48.3922 35.0343 48.3893 35.2863 48.3893C35.2863 48.3893 35.8876 46.6212 35.9215 46.565C35.4749 46.3558 35.0391 46.1242 34.6158 45.871C34.7941 46.1403 35.2273 46.4466 35.1419 46.6833L34.5937 48.4011Z" fill="#FFFFFE"/>
<path fill-rule="evenodd" clip-rule="evenodd" d="M40.3145 37.9154H23.6987V44.2021C23.6987 46.7736 25.5482 48.3819 28.279 48.3819C30.5587 48.3819 31.16 48.4706 32.0074 49.3184C32.5924 48.731 33.0758 48.5135 34.0705 48.4307L34.0926 48.3345L34.6158 46.7055C34.5863 46.6685 33.7316 45.6905 33.7316 45.6905C33.3926 45.8045 33.1067 45.8237 32.6263 45.8237C32.1356 45.8237 31.58 45.7645 30.9773 45.6521C30.9208 45.6386 30.8629 45.6317 30.8048 45.6314C30.7312 45.6314 30.7267 45.6373 30.7061 45.6743L30.603 45.8474L30.4114 46.164L30.0533 46.0797L28.4587 45.7024L28.2392 46.0649L28.2731 46.1048L28.4661 46.3194L28.3806 46.6005C28.2627 46.9659 27.8825 47.3935 27.7661 47.5119L27.3682 47.941L27.0042 47.4808L26.7316 47.1361C26.4442 46.8135 26.3779 46.3194 26.54 45.8015C26.5353 45.805 26.5296 45.807 26.5238 45.8074L26.0743 45.9953L25.8724 45.5515L25.7295 45.2393C25.5923 44.9199 25.5676 44.563 25.6594 44.2276C25.7513 43.8922 25.9543 43.5983 26.235 43.3943L27.5171 42.6648L28.7402 42.906C28.7697 42.7876 28.8139 42.3674 28.8478 42.2594C28.8242 42.2565 28.8021 42.252 28.7785 42.252L28.0741 42.5154L27.3962 42.0449C27.3962 42.0449 27.131 41.7875 27.3712 41.53L28.027 40.5283L26.3617 38.4274L28.9215 39.4838L29.0924 39.2722L29.4373 38.855L29.8293 39.2308C29.9323 39.3319 30.004 39.4609 30.0356 39.6021C30.74 39.8788 32.0044 40.6941 32.1164 42.0197L31.7215 42.1781V42.1884C31.8114 42.2964 31.8865 42.3408 31.9101 42.3452L33.7375 42.5258C33.7846 42.5169 33.8406 42.4962 33.9055 42.4784C34.1339 42.4 34.4743 42.2861 34.8781 42.2861C35.2082 42.2861 35.5265 42.363 35.8316 42.508C35.9451 42.4636 36.0821 42.4325 36.2442 42.4222L36.3326 42.4192C37.3097 42.4192 37.796 43.1546 38.1865 43.742C38.2514 43.844 38.3162 43.9387 38.384 44.0334C38.7259 44.5187 39.1724 45.2274 39.1901 45.2585L39.392 45.5737L39.1444 45.8636C38.9558 46.0856 38.6684 46.3445 38.1792 46.3445C38.0683 46.3436 37.9578 46.3322 37.8491 46.3105C37.7488 46.2912 37.651 46.2609 37.5573 46.2202C37.5423 46.3246 37.5251 46.4287 37.5057 46.5324L37.1859 48.2147C39.1017 47.7412 40.3189 46.2853 40.3189 44.2021L40.3145 37.9154V37.9154ZM23.6987 37.4094H36.6229C35.9775 36.7377 35.9878 35.8899 36.1514 35.338C35.977 35.254 35.8149 35.1464 35.6695 35.0185C35.164 35.3928 33.6225 36.5217 33.2202 36.8058L33.1333 36.8649L28.0608 35.9417H27.9577C27.8368 35.9417 27.6585 35.9373 27.464 35.9121C27.4432 36.0056 27.3958 36.0911 27.3276 36.1581C27.2594 36.2252 27.1734 36.2709 27.0798 36.2899C26.9862 36.3088 26.8892 36.3001 26.8005 36.2649C26.7117 36.2296 26.6351 36.1692 26.5798 36.0911C26.541 36.0378 26.5131 35.9772 26.4979 35.9129C26.4828 35.8487 26.4805 35.782 26.4914 35.7168L26.5105 35.6058C25.9888 35.236 25.504 34.4074 25.7192 33.5345L25.7398 33.4427L25.8135 33.3895C25.8878 33.3385 25.9646 33.2911 26.0434 33.2474L25.675 33.1882C25.6095 33.177 25.5511 33.1405 25.512 33.0866C25.4729 33.0328 25.4563 32.9657 25.4657 32.8997C25.4893 32.7606 25.6175 32.663 25.7545 32.6881L26.6314 32.8272L26.7124 29.7187L28.0181 28.3279L28.8345 30.0545L27.9739 33.0462L28.7491 33.169C28.8153 33.1799 28.8744 33.2167 28.9137 33.2713C28.9529 33.326 28.969 33.394 28.9583 33.4605C28.9488 33.5194 28.9186 33.573 28.8732 33.6115C28.8278 33.65 28.7702 33.671 28.7107 33.6706L28.671 33.6691L28.0387 33.5655C28.0476 33.5862 28.0594 33.5966 28.0682 33.6173C28.1386 33.7398 28.2445 33.8379 28.3718 33.8984L32.2373 33.962C32.4008 33.8008 32.8061 33.4013 33.2246 32.9781C32.8603 32.8439 32.5405 32.6104 32.301 32.3038C32.0616 31.9973 31.9119 31.6298 31.8688 31.2426C31.3383 31.0148 30.9699 30.6745 30.7665 30.2306C30.519 29.6802 30.6074 29.1298 30.6737 28.862C30.1579 28.6741 29.6156 28.3279 29.0615 27.7745H23.2375C23.488 28.4492 23.6987 29.1801 23.6987 29.9066V37.4079V37.4094Z" fill="#FFE52B"/>
<path fill-rule="evenodd" clip-rule="evenodd" d="M29.0202 40.6423C28.9978 40.6404 28.9752 40.6432 28.9539 40.6503C28.9325 40.6574 28.9128 40.6687 28.8959 40.6836C28.879 40.6985 28.8653 40.7167 28.8555 40.737C28.8457 40.7574 28.8401 40.7795 28.839 40.802C28.8372 40.8246 28.8399 40.8473 28.8471 40.8687C28.8543 40.8902 28.8658 40.91 28.8808 40.9268C28.8958 40.9437 28.9141 40.9574 28.9345 40.9669C28.9549 40.9765 28.9771 40.9818 28.9996 40.9825C29.0446 40.9854 29.089 40.9704 29.1232 40.9408C29.1573 40.9113 29.1786 40.8694 29.1823 40.8242C29.1847 40.7786 29.1691 40.7338 29.1387 40.6997C29.1083 40.6656 29.0657 40.6449 29.0202 40.6423V40.6423ZM36.7217 53.8251L35.9628 51.7242C36.8661 51.4475 38.4179 50.8527 39.115 50.4577L38.6508 51.986L40.2232 52.5113C39.2712 52.9907 38.1188 53.439 36.7217 53.8237V53.8251ZM32.0089 55.7116C30.18 55.7116 28.0933 55.2884 27.4773 55.068L28.4116 52.5261C29.1868 52.7539 30.799 52.9951 31.9705 52.9877H32.0442C33.2143 52.9951 34.8251 52.7525 35.6047 52.5261L36.5375 55.068C35.9215 55.2899 33.8348 55.7116 32.0089 55.7116ZM23.7916 52.5113L25.3655 51.986L24.8998 50.4577C25.5939 50.8527 27.1501 51.449 28.0505 51.7242L27.2916 53.8251C25.899 53.4405 24.7421 52.9907 23.7916 52.5113ZM40.2939 52.0452L39.336 51.6753L39.6013 50.6811L39.8916 49.5966C39.8916 49.5966 38.1969 50.5228 35.8051 51.2167C35.1272 51.412 34.6143 51.5022 34.6143 51.5022V52.2405C34.6143 52.2405 33.3352 52.4625 32.0442 52.4625H31.9705C30.6767 52.4625 29.4004 52.2405 29.4004 52.2405V51.5008C29.4004 51.5008 28.8861 51.412 28.2082 51.2167C25.8194 50.5213 24.1247 49.5966 24.1247 49.5966L24.4105 50.6811L24.6817 51.6753L23.7209 52.0452L22.6554 52.4447C23.8756 53.038 25.5674 53.9006 27.1148 54.3267L26.7508 55.3299C26.7508 55.3299 28.7137 56.2294 31.9838 56.2383V56.2398H32.028V56.2383C35.3025 56.2294 37.2655 55.3299 37.2655 55.3299L36.8971 54.3267C38.4459 53.9006 40.1407 53.0395 41.355 52.4447L40.2939 52.0452V52.0452ZM28.0108 11.5689L28.4455 11.6162L28.6327 11.2167L29.1809 10.0375L30.1977 10.5672L30.5927 10.7699L32.0044 9.36136L33.1053 10.4562L33.4207 10.7699L33.8156 10.5672L34.8265 10.0375L35.3836 11.2167L35.5678 11.6162L36.0025 11.5689L36.4181 11.52C36.228 11.9506 36.088 12.3604 35.9863 12.7007C34.8884 12.0838 33.4619 11.7346 32.0059 11.7346C30.5558 11.7346 29.1293 12.0838 28.027 12.7007C27.9081 12.2986 27.7644 11.9043 27.5966 11.52L28.0093 11.5689H28.0108ZM32.0044 12.3486C33.9541 12.3486 35.5118 12.9996 36.3739 13.6906C36.3739 13.6906 36.6303 12.1415 37.5028 10.7758L35.9333 10.9534L35.1124 9.20009L33.5356 10.0183L32.0044 8.4973L30.4792 10.0183L28.8994 9.20009L28.08 10.9549L26.5105 10.7743C27.3844 12.1415 27.6394 13.6891 27.6394 13.6891C28.5059 12.9981 30.0592 12.3486 32.0044 12.3486V12.3486ZM56.7004 38.4052C56.7004 38.4052 56.0225 39.5932 54.4663 39.5932H54.4472C52.5785 39.5814 51.824 38.4347 51.824 38.4347C51.824 38.4347 51.9331 39.9261 51.2611 41.9398C50.4505 44.3663 51.267 46.0974 51.267 46.0974C51.267 46.0974 50.8308 46.2172 50.3282 46.2172C50.1367 46.2172 49.9362 46.198 49.7461 46.1477C48.1855 45.7763 47.7964 44.3471 47.7964 44.3471C47.7964 44.3471 47.9409 49.1719 42.3453 49.1719H42.3011C42.3011 49.1719 42.7948 48.4987 42.9407 46.5575C43.2059 42.977 45.6169 42.4843 45.6169 42.4843C45.6169 42.4843 44.3303 42.3216 43.7718 41.82C42.9009 41.0255 42.9613 40.1066 42.9613 40.1066C44.9301 40.0785 46.2211 39.4053 47.204 38.2616C47.8374 37.5299 48.2648 36.6417 48.4419 35.6887C48.4419 35.6887 47.3838 36.6548 45.3369 36.6548C45.1571 36.6548 44.9655 36.646 44.768 36.6267C43.7983 36.5483 43.1293 35.9284 43.1293 35.9284C45.2602 34.5539 46.7546 32.1555 45.4297 28.5454C44.3687 25.6528 41.8162 23.4912 39.2476 21.8637C38.3929 21.3266 37.9154 20.7288 37.9154 20.2154C37.9154 19.0066 39.6249 18.9682 40.3263 18.1559C41.1369 17.2119 40.6284 15.6806 39.927 14.7588C39.927 14.7588 40.1628 14.71 40.5356 14.71C41.2754 14.71 42.5545 14.8964 43.6068 15.9942C45.0023 17.4472 44.4232 19.0303 44.4232 19.0303L44.7975 19.1043C45.0215 19.1501 45.244 19.1605 45.4754 19.1723L45.6257 19.1738C47.655 19.1738 48.5613 17.0403 48.5613 17.0403C48.5613 17.0403 50.7188 19.7094 47.543 21.8015C46.9962 22.1581 46.7545 22.491 46.8179 22.8431L46.868 23.0754L47.0935 23.1154C49.3954 23.7442 50.5611 25.3421 51.9832 27.156C54.1436 29.9184 57.2 30.0072 57.5758 30.0072H57.6171C57.6171 30.0072 56.92 32.2221 54.8642 32.2221C54.8303 32.2221 54.8009 32.2221 54.767 32.2191C53.8238 32.1851 53.3375 31.8211 53.3375 31.8211C53.3375 31.8211 52.9706 36.8472 56.7004 38.4052V38.4052ZM54.8642 32.8997C57.3842 32.8997 58.2272 30.3208 58.2625 30.2113L58.5426 29.3014L57.5994 29.331H57.5964C57.2619 29.331 54.4825 29.257 52.5122 26.7373L52.3251 26.5036C51.0371 24.8568 49.8154 23.29 47.6314 22.5753C47.7187 22.4986 47.8118 22.4289 47.9099 22.3667C49.0682 21.6003 49.7432 20.6697 49.9112 19.5881C50.1602 17.9621 49.1272 16.666 49.083 16.6127L48.3815 15.7398L47.9423 16.7754C47.9129 16.8391 47.176 18.4962 45.6257 18.4962H45.5108C45.4047 18.4917 45.303 18.4873 45.2028 18.4784C45.2573 17.7386 45.1232 16.5964 44.0916 15.5223C42.8522 14.2306 41.3314 14.0368 40.5356 14.0368C40.1112 14.0368 39.8282 14.09 39.7973 14.093L38.7377 14.3046L39.3905 15.1701C39.9034 15.8389 40.3691 17.0714 39.8179 17.715C39.6411 17.9221 39.2785 18.0863 38.9322 18.2535C38.219 18.5835 37.2434 19.0451 37.2434 20.2154C37.2434 20.973 37.8284 21.7675 38.8895 22.4407C42.0255 24.4248 43.9619 26.4962 44.7975 28.7821C46.0914 32.2975 44.404 34.3038 42.7638 35.3602L42.0299 35.8352L42.6739 36.4299C42.7609 36.5069 43.5463 37.2037 44.7091 37.3044C44.9301 37.3192 45.1409 37.331 45.3383 37.331C46.0825 37.331 46.7177 37.2126 47.2335 37.0558C47.0793 37.3259 46.8997 37.5806 46.6971 37.8163C45.7613 38.9082 44.6089 39.4053 42.951 39.432L42.335 39.4408L42.2878 40.0623C42.2819 40.188 42.2362 41.3406 43.3194 42.3201C43.4859 42.471 43.6863 42.5968 43.8971 42.6974C43.1602 43.3632 42.4145 44.5231 42.2701 46.5087C42.1478 48.1658 41.7543 48.7798 41.7499 48.7872L41.0691 49.8318L42.2996 49.8481C44.3318 49.8481 45.888 49.2858 46.9653 48.1673C47.5233 47.5798 47.9397 46.8717 48.1826 46.0974C48.781 46.6097 49.5418 46.8909 50.3282 46.8904C50.903 46.8904 51.3834 46.7676 51.4364 46.7558L52.2219 46.5457L51.8756 45.8089C51.8491 45.7497 51.1948 44.2701 51.8992 42.1588C52.2028 41.2459 52.3575 40.4292 52.4327 39.7915C52.9278 40.0519 53.5895 40.265 54.4457 40.2679C56.391 40.2679 57.2472 38.8076 57.2855 38.7469L57.6687 38.0752L56.9583 37.7823C54.6417 36.8146 54.1289 34.2165 54.0257 32.8109C54.2364 32.8509 54.4752 32.8879 54.7449 32.8953L54.8642 32.8997V32.8997Z" fill="#1A1919"/>
<path fill-rule="evenodd" clip-rule="evenodd" d="M52.0332 21.8696C52.5019 21.8696 53.0501 22.0309 53.5659 22.5679C55.1899 24.225 56.7004 24.3183 56.7004 24.3183C56.4263 24.9293 55.6305 25.4664 54.8067 25.4664C54.6166 25.4664 54.4236 25.4368 54.2364 25.3702C53.1179 24.9915 52.7185 23.3062 50.757 22.2572C50.757 22.2572 51.3023 21.8696 52.0332 21.8696V21.8696ZM50.4372 22.855C51.376 23.358 51.9242 24.0342 52.4046 24.6319C52.8762 25.2164 53.3227 25.7786 54.0257 26.0124C54.2732 26.0982 54.537 26.1396 54.8067 26.1396C55.8574 26.1396 56.9141 25.4916 57.3149 24.5949L57.7172 23.6983L56.7431 23.6391C56.6974 23.6391 55.4433 23.5223 54.0492 22.09C53.4745 21.5012 52.7804 21.1934 52.0332 21.1934C51.1196 21.1934 50.4417 21.6521 50.368 21.6994L49.472 22.3342L50.4372 22.855V22.855ZM50.8779 31.8078V31.8418C50.312 27.2522 46.9991 23.938 43.3105 21.9229C42.9716 21.7394 42.6547 21.5826 42.3497 21.4346C43.4711 21.6092 45.2793 21.6299 46.6764 20.4137C46.6764 20.4137 44.5396 21.9924 40.1671 20.5572C41.3756 21.3473 43.729 22.4629 45.8777 24.268C51.2463 29.0144 47.4059 33.6425 47.4059 33.6425C49.3364 31.6169 49.416 29.4479 48.8471 27.6754C49.864 29.3769 50.5124 31.4409 50.4122 33.9872C50.2648 37.6343 48.2709 40.7887 46.1739 43.3232C45.1659 44.5513 44.9419 46.0634 44.9419 46.0634C44.9419 46.0634 45.3486 44.7303 46.5143 43.3587C48.7617 40.7103 50.6848 37.9628 50.9353 34.0005C51.1682 34.7211 52.1261 36.7185 53.644 37.4716C53.644 37.4716 51.7355 36.3145 50.8779 31.8078V31.8078ZM21.6694 49.1719C16.0739 49.1719 16.2168 44.3471 16.2168 44.3471C16.2168 44.3471 15.8248 45.7763 14.2671 46.1477C14.0769 46.1958 13.8812 46.2192 13.685 46.2173C13.184 46.2173 12.7478 46.0989 12.7478 46.0989C12.7478 46.0989 13.5627 44.3648 12.7507 41.9398C12.0817 39.9276 12.1907 38.4348 12.1907 38.4348C12.1907 38.4348 11.4377 39.5814 9.56756 39.5933H9.5484C7.99366 39.5933 7.31429 38.4052 7.31429 38.4052C11.0427 36.8472 10.6772 31.8211 10.6772 31.8211C10.6772 31.8211 10.1909 32.1851 9.24777 32.2206H9.14903C7.09177 32.2206 6.39472 30.0072 6.39472 30.0072H6.43745C6.81766 30.0072 9.86966 29.9184 12.0286 27.1561C13.4507 25.3406 14.6179 23.7442 16.9153 23.1169L17.1467 23.0754L17.1953 22.8431C17.2602 22.491 17.0185 22.1581 16.4732 21.8015C13.2975 19.7094 15.4535 17.0418 15.4535 17.0418C15.4535 17.0418 16.3553 19.1738 18.3905 19.1738L18.5379 19.1723C18.7678 19.1605 18.9932 19.1502 19.2158 19.1028L19.5901 19.0303C19.5901 19.0303 19.0094 17.4472 20.4094 15.9942C21.4617 14.8964 22.7393 14.71 23.4777 14.71C23.8534 14.71 24.0848 14.7588 24.0848 14.7588C23.3863 15.6806 22.8793 17.2119 23.6869 18.1559C24.3884 18.9682 26.0964 19.0066 26.0964 20.2154C26.0964 20.7288 25.6204 21.3266 24.7671 21.8637C22.1956 23.4912 19.6446 25.6513 18.5836 28.5468C17.2602 32.157 18.7545 34.5539 20.8869 35.9299C20.8869 35.9299 20.2164 36.5483 19.2467 36.6267C19.0567 36.6451 18.8659 36.6545 18.6749 36.6548C16.6295 36.6548 15.5713 35.6902 15.5713 35.6902C15.5713 35.6902 15.7482 37.0233 16.8063 38.2631C17.7937 39.4053 19.0831 40.0785 21.0505 40.1067C21.0505 40.1067 21.1139 41.024 20.2429 41.82C19.6844 42.323 18.3979 42.4858 18.3979 42.4858C18.3979 42.4858 20.8103 42.977 21.0756 46.5575C21.22 48.4987 21.7092 49.1719 21.7092 49.1719H21.6694ZM22.2633 48.7872C22.2619 48.7799 21.8713 48.1658 21.7461 46.5087C21.5987 44.5232 20.853 43.3632 20.1147 42.6974C20.3284 42.5968 20.5273 42.471 20.6924 42.3201C21.7756 41.3406 21.7299 40.1895 21.7225 40.0623L21.6812 39.4409L21.0608 39.432C19.4073 39.4053 18.2534 38.9082 17.3177 37.8163C17.1159 37.5799 16.9364 37.3253 16.7812 37.0558C17.297 37.2141 17.9278 37.331 18.6749 37.331C18.8739 37.331 19.0831 37.3192 19.3027 37.3044C20.0549 37.229 20.7661 36.9243 21.3408 36.4314L21.9848 35.8352L21.2509 35.3617C19.6063 34.3038 17.9248 32.299 19.2172 28.7821C20.0528 26.4962 21.9848 24.4263 25.1267 22.4407C26.1878 21.7675 26.7684 20.973 26.7684 20.2154C26.7684 19.0451 25.7958 18.5835 25.0825 18.2535C24.7347 18.0863 24.3722 17.9206 24.1968 17.715C23.6442 17.0714 24.1084 15.8389 24.6227 15.1701L25.28 14.3046L24.2145 14.093C24.185 14.0886 23.905 14.0368 23.4777 14.0368C22.6833 14.0368 21.164 14.2306 19.9261 15.5223C18.893 16.5964 18.7574 17.7401 18.8105 18.4784C18.7103 18.4873 18.6101 18.4917 18.504 18.4962H18.3905C16.8343 18.4962 16.1004 16.8391 16.0724 16.7755L15.6347 15.7398L14.9273 16.6127C14.8876 16.666 13.8516 17.9621 14.105 19.5881C14.2716 20.6682 14.9465 21.6003 16.1048 22.3667C16.2316 22.4481 16.3185 22.5176 16.3819 22.5753C14.1949 23.29 12.9762 24.8568 11.6882 26.5036L11.5025 26.7373C9.53366 29.257 6.74693 29.3325 6.41387 29.3325L5.46482 29.3029L5.75366 30.2114C5.78756 30.3208 6.62756 32.8997 9.14903 32.8997L9.26987 32.8953C9.53661 32.8879 9.77682 32.8509 9.98903 32.8095C9.88587 34.215 9.37008 36.8146 7.05345 37.7808L6.34608 38.0767L6.72924 38.7469C6.76461 38.8076 7.62524 40.2679 9.57345 40.2679C10.2707 40.2749 10.9594 40.1125 11.5806 39.7945C11.6558 40.4307 11.812 41.2459 12.1156 42.1588C12.82 44.2687 12.1642 45.7497 12.1391 45.8089L11.7913 46.5457L12.5768 46.7543C12.6299 46.7691 13.1132 46.8905 13.685 46.8905C14.4717 46.8925 15.2331 46.6111 15.8307 46.0974C16.0444 46.7588 16.4113 47.5059 17.0465 48.1673C18.1282 49.2844 19.6829 49.8481 21.7137 49.8481L22.9442 49.8318L22.2633 48.7872V48.7872Z" fill="#1A1919"/>
<path fill-rule="evenodd" clip-rule="evenodd" d="M10.4459 22.5679C10.9646 22.0309 11.5114 21.8681 11.983 21.8681C12.708 21.8681 13.2577 22.2572 13.2577 22.2572C11.2977 23.3077 10.8939 24.9915 9.7739 25.3717C9.5915 25.4352 9.39958 25.4667 9.20654 25.4649C8.38275 25.4649 7.58548 24.9293 7.31433 24.3183C7.31433 24.3183 8.82338 24.2251 10.4459 22.5679V22.5679ZM9.20654 26.1396C9.47622 26.1396 9.74001 26.0982 9.99054 26.0124C10.692 25.7786 11.14 25.2178 11.6116 24.6319C12.0935 24.0357 12.6358 23.3595 13.576 22.8565L14.5427 22.3342L13.6438 21.698C13.5701 21.6521 12.8966 21.1949 11.983 21.1949C11.2343 21.1949 10.5387 21.5012 9.96548 22.09C8.5699 23.5237 7.31875 23.6391 7.27306 23.6406L6.30043 23.6983L6.69833 24.5964C7.10211 25.4916 8.15727 26.1396 9.20654 26.1396V26.1396ZM13.6025 33.9872C13.4994 31.4409 14.1478 29.3769 15.1646 27.6754C14.5987 29.4479 14.6754 31.6169 16.6089 33.6439C16.6089 33.6439 12.7655 29.0129 18.1371 24.2694C20.2857 22.4629 22.6362 21.3473 23.8446 20.5572C19.4737 21.9924 17.3383 20.4122 17.3383 20.4122C18.7339 21.6299 20.5421 21.6107 21.6636 21.4331C21.36 21.5826 21.0417 21.7379 20.7027 21.9229C17.0141 23.9365 13.7027 27.2522 13.1339 31.8418V31.8078C12.2777 36.3145 10.3707 37.4716 10.3707 37.4716C11.8886 36.717 12.8436 34.7196 13.0764 34.0005C13.3299 37.9628 15.2516 40.7118 17.4975 43.3587C18.6646 44.7303 19.0743 46.0634 19.0743 46.0634C19.0743 46.0634 18.8474 44.5527 17.835 43.3232C15.7423 40.7887 13.7499 37.6343 13.6025 33.9872V33.9872ZM30.743 24.7V25.6114C31.0554 25.2282 31.6566 25.3066 31.6566 25.3066V26.619C31.6566 26.619 31.6375 27.2641 31.4091 27.5437H32.7147C32.4878 27.2641 32.4657 26.619 32.4657 26.619V25.3066C32.4657 25.3066 33.0699 25.2282 33.3794 25.6114V24.7H30.7415H30.743ZM30.183 19.3026C30.6 19.6355 30.8417 19.6917 30.8491 19.6961L31.0112 19.7716V18.9149L29.4785 18.2669C29.4785 18.2669 29.4918 18.764 30.183 19.3026V19.3026ZM33.8289 19.3026C34.5215 18.764 34.5362 18.2669 34.5362 18.2669L33.0021 18.9149V19.7731L33.1642 19.6961C33.1716 19.6917 33.4118 19.6355 33.8289 19.3026Z" fill="#1A1919"/>
<path fill-rule="evenodd" clip-rule="evenodd" d="M32.0059 17.0196L28.3114 15.5518C28.6253 14.8032 30.0739 14.167 32.0059 14.1655C33.9394 14.167 35.388 14.8032 35.7019 15.5518L32.0059 17.0196ZM34.7602 21.6195L32.277 22.9363V17.604L35.6474 16.4529L34.7602 21.6166V21.6195ZM36.2987 23.034L37.4335 23.6968H37.4497L37.7356 23.864C37.0945 24.0416 36.6038 24.3656 36.1926 24.7887L36.1484 24.8331C36.0515 24.937 35.9586 25.0446 35.8699 25.1557L35.8183 25.2237C35.7299 25.3377 35.6459 25.4546 35.5678 25.5759L35.525 25.6365C35.4295 25.783 35.3386 25.9326 35.2524 26.0848C34.4419 27.486 33.1524 28.3234 32.0059 28.3264C30.8594 28.3234 29.5684 27.486 28.7608 26.0848C28.675 25.9354 28.5851 25.7884 28.4912 25.6439L28.4381 25.5655C28.3611 25.4513 28.2815 25.3388 28.1994 25.2282C28.1787 25.1986 28.1596 25.1764 28.1389 25.1512C28.0524 25.0433 27.9625 24.9382 27.8693 24.8361C27.8501 24.8213 27.8368 24.8021 27.8192 24.7858C27.3981 24.3431 26.8646 24.0244 26.2762 23.864L26.5651 23.6968H26.5768L27.716 23.034L28.8817 22.3608L32 24.0682L32.0059 24.0623L32.0147 24.0682L35.1316 22.3608L36.2987 23.034ZM40.7787 27.7745C40.5238 28.4492 40.313 29.1801 40.313 29.9065L40.316 34.5968C39.3419 34.434 39.2255 33.3776 39.2225 33.3317L39.2048 33.1172L38.9941 33.098C38.6367 33.0663 38.3028 32.9061 38.0539 32.6467C37.5749 32.1658 37.5749 31.3876 37.5749 31.3802C37.569 31.4201 37.0503 32.1496 37.6516 32.9485C37.905 33.2859 38.2735 33.4945 38.748 33.5759C38.86 34.1603 39.2933 34.9874 40.316 35.1146V37.4079H37.4408C36.1145 36.6667 36.676 35.3617 36.7025 35.3055L36.8145 35.0569L36.561 34.9607C35.1242 34.4251 35.5206 32.984 35.5398 32.9219L35.5987 32.7118L35.4013 32.6201C34.2164 32.0667 34.3771 30.5783 34.3933 30.5161C34.0278 30.8135 33.8966 31.4187 34.1472 32.0149C34.0116 32.1718 33.8288 32.3597 33.6299 32.5668C33.2837 32.4909 32.9721 32.3027 32.743 32.0313C32.514 31.7599 32.3803 31.4203 32.3625 31.065L32.3611 30.8905L32.1989 30.8283C31.72 30.6508 31.3914 30.3815 31.2278 30.022C31.0465 29.624 31.1099 29.2082 31.16 29.0055C31.4354 29.0628 31.7158 29.0926 31.997 29.0943H32.0162C32.1592 29.0943 32.2992 29.0854 32.4377 29.0721C33.204 28.9951 34.0587 28.6652 34.9518 27.7745H40.7787V27.7745ZM37.1859 48.2146L37.5072 46.5324L37.5587 46.2217C37.757 46.2997 37.9677 46.3412 38.1806 46.3445C38.6699 46.3445 38.9558 46.0841 39.1459 45.8636L39.3905 45.5751L39.1901 45.2585C39.1724 45.2274 38.7259 44.5187 38.384 44.0334C38.3161 43.9375 38.2507 43.8398 38.188 43.7404C37.7975 43.1545 37.3097 42.4192 36.3312 42.4192L36.2442 42.4222C36.1033 42.4298 35.9642 42.4582 35.8316 42.5065C35.5338 42.3635 35.2082 42.2888 34.8781 42.2875C34.5461 42.2955 34.2178 42.3596 33.9069 42.4769C33.8421 42.4961 33.7832 42.5168 33.7375 42.5257L31.9101 42.3452C31.8865 42.3393 31.8128 42.2949 31.7215 42.1884V42.178L32.1164 42.0197C32.0059 40.694 30.74 39.8788 30.0356 39.6021C30.0043 39.4603 29.9327 39.3308 29.8293 39.2293L29.4373 38.8549L29.0924 39.2707L28.9229 39.4837L26.3617 38.4259L28.0269 40.5283L27.3712 41.53C27.1295 41.7859 27.3962 42.0449 27.3962 42.0449L28.0741 42.5154L28.7785 42.2505C28.8021 42.2505 28.8227 42.2564 28.8478 42.2594C28.8139 42.3674 28.7697 42.7891 28.7402 42.906L27.5185 42.6648L26.2364 43.3942C25.5747 43.8825 25.4848 44.6874 25.7309 45.2392L25.8724 45.5529L26.0743 45.9953L26.5238 45.8089C26.5312 45.8059 26.5371 45.8044 26.5415 45.8C26.3794 46.3193 26.4457 46.812 26.7331 47.136L27.0057 47.4808L27.3682 47.9424L27.7661 47.5118C27.884 47.3935 28.2642 46.9659 28.3806 46.599L28.4661 46.3193L28.2731 46.1048L28.2406 46.0648L28.4587 45.7023L30.0533 46.0811L30.4128 46.164L30.6044 45.8459L30.7076 45.6742C30.7267 45.6372 30.7312 45.6313 30.8048 45.6313C30.8623 45.6313 30.9183 45.6372 30.9787 45.652C31.5225 45.7598 32.075 45.8168 32.6293 45.8222C33.1053 45.8222 33.3926 45.8044 33.7316 45.6905C33.7316 45.6905 34.5878 46.667 34.6173 46.7055L34.0926 48.333L34.069 48.4307C33.0773 48.512 32.5939 48.731 32.0088 49.3184C31.16 48.4721 30.5602 48.3818 28.2804 48.3818C25.5497 48.3818 23.6987 46.7735 23.6987 44.2006V37.9154H40.316L40.3189 44.2006C40.3189 46.2853 39.1017 47.7397 37.1859 48.2146V48.2146ZM26.9512 44.6607L27.0381 44.8782C26.9792 45.0676 26.3307 45.3369 26.3307 45.3369L26.1922 45.0277C26.1037 44.8157 26.0886 44.5802 26.1493 44.3586C26.2099 44.137 26.3428 43.9423 26.5267 43.8055L27.5775 43.1619L28.6931 43.3987C28.6709 43.7552 28.8832 44.0216 28.8832 44.0216L27.716 43.7967L27.016 44.282C26.8981 44.3648 26.8893 44.5187 26.9512 44.6607V44.6607ZM37.009 46.4362L36.6509 48.3167C36.421 48.3493 36.1794 48.367 35.9318 48.3759L36.309 46.5708C36.421 46.0323 34.9886 45.8651 34.2798 44.8102C33.9335 45.2008 33.2836 45.3177 32.6293 45.3177C32.0309 45.3177 31.4356 45.2215 31.0716 45.149C30.9839 45.1337 30.8953 45.1253 30.8063 45.1238C30.5956 45.1238 30.4055 45.1889 30.2728 45.4123L30.1697 45.5899L28.2156 45.1268L27.7293 45.9361C27.6615 46.0678 27.6556 46.1773 27.7661 46.3001L27.8987 46.4451C27.8074 46.7306 27.4006 47.1641 27.4006 47.1641L27.1103 46.7987C26.8804 46.5413 26.9187 46.0678 27.1575 45.6298L27.9326 44.313L29.5876 44.5542L29.3312 43.9639C28.9848 43.1841 29.5124 42.1928 29.5684 41.6217C29.5493 41.7948 29.3916 41.8333 29.2088 41.8333C29.0408 41.8333 28.8552 41.8022 28.7314 41.8022C28.6827 41.8022 28.64 41.8067 28.6179 41.8229L28.1699 42.0967L27.8162 41.783C27.7735 41.7238 27.7602 41.5803 27.8634 41.4738L28.6827 40.5505L27.716 39.4142L29.0688 40.0992L29.4829 39.5947C29.5964 39.7072 29.5463 39.9986 29.5463 39.9986C29.9693 40.0105 31.1556 40.6689 31.2175 42.2076C31.2219 42.255 31.2219 42.3067 31.2219 42.3585L31.2528 42.4088C31.3368 42.5257 31.5682 42.8231 31.8615 42.8497L33.7331 43.0362H33.7404C33.9467 43.0362 34.3549 42.7935 34.8781 42.7935C35.1655 42.7935 35.4823 42.8675 35.8213 43.082C35.8213 43.082 35.9922 42.9459 36.2678 42.9311C36.2884 42.9282 36.312 42.9282 36.3312 42.9282C37.1712 42.9282 37.5204 43.6916 37.9714 44.3264C38.3103 44.8087 38.7627 45.5248 38.7627 45.5248C38.5962 45.7245 38.44 45.8355 38.1792 45.8355C38.098 45.8358 38.017 45.8279 37.9375 45.8118C37.0385 45.6446 36.9074 43.7848 36.3945 43.6369C36.3676 43.6297 36.3398 43.6263 36.312 43.6265C36.1469 43.6265 36.0747 43.7745 36.0747 43.7745C36.3105 44.4092 36.172 44.6652 36.4255 45.1549C36.6141 45.5174 36.9486 45.8148 37.0872 45.9568C37.0872 45.9568 37.0503 46.232 37.009 46.4377V46.4362ZM35.2863 48.3892C35.0358 48.3892 34.8029 48.3922 34.5937 48.4011L35.1419 46.6833C35.2274 46.4451 34.7941 46.1388 34.6158 45.8695C34.8855 46.0412 35.5855 46.417 35.9229 46.5649C35.7042 47.1707 35.492 47.7789 35.2863 48.3892V48.3892ZM27.1339 32.9101L27.212 29.9243L27.8781 29.2156L28.2966 30.0974L27.4714 32.9633L27.1324 32.9115L27.1339 32.9101ZM27.6128 33.8363C27.714 34.0308 27.8671 34.1932 28.0549 34.3053C28.0498 34.5891 28.0227 34.872 27.9739 35.1516C27.9592 35.2167 27.9444 35.2774 27.9253 35.338C27.9164 35.3765 27.9046 35.4076 27.8973 35.4327C27.6924 35.4327 27.2931 35.4076 26.9674 35.2877C26.6048 35.1546 26.064 34.4858 26.1893 33.749C26.3455 33.6528 26.708 33.4471 27.0484 33.4471C27.3093 33.4471 27.4876 33.5714 27.6128 33.8363V33.8363ZM35.329 34.6382C34.8177 35.0184 33.4973 35.9875 33.0183 36.3249L28.4086 35.4904L28.4411 35.3676C28.5 35.1264 28.5634 34.798 28.5663 34.4118L32.4406 34.474L32.5143 34.4C32.5733 34.3408 33.8008 33.1468 34.4257 32.4618C34.5745 32.6497 34.7602 32.8272 35.0048 32.984C34.9223 33.4427 34.9562 34.0907 35.329 34.6382V34.6382ZM29.0615 27.7745C29.6171 28.3279 30.1579 28.6726 30.6737 28.862C30.6074 29.1283 30.5189 29.6817 30.7665 30.2306C30.9699 30.6744 31.3383 31.0147 31.8703 31.2426C31.9293 31.79 32.2726 32.6141 33.2261 32.9781C32.8076 33.4013 32.4008 33.8008 32.2387 33.9605L28.3718 33.8999C28.2441 33.8386 28.1381 33.7394 28.0682 33.6158C28.0608 33.5966 28.0476 33.5862 28.0387 33.5655L28.6709 33.6691L28.7107 33.6706C28.7702 33.671 28.8278 33.65 28.8732 33.6115C28.9186 33.5729 28.9488 33.5194 28.9583 33.4605C28.969 33.3942 28.9531 33.3264 28.9142 33.2718C28.8753 33.2172 28.8165 33.1802 28.7505 33.169L27.9739 33.0447L28.8345 30.0545L28.0196 28.3279L26.7124 29.7186L26.6328 32.8272L25.7545 32.6866C25.6189 32.66 25.4893 32.7606 25.4642 32.8982C25.4544 32.9648 25.471 33.0326 25.5104 33.0871C25.5498 33.1416 25.6088 33.1784 25.6749 33.1897L26.0434 33.2459C25.9107 33.3214 25.8238 33.382 25.8135 33.3894L25.7398 33.4427L25.7192 33.5344C25.5055 34.4074 25.9888 35.2359 26.5105 35.6058L26.4914 35.7168C26.4707 35.8499 26.5002 35.9831 26.5798 36.0911C26.6251 36.1567 26.6857 36.2102 26.7564 36.2468C26.827 36.2834 26.9055 36.3021 26.9851 36.3012C27.0967 36.3003 27.2048 36.2615 27.2918 36.1911C27.3787 36.1208 27.4394 36.0229 27.464 35.9136C27.6585 35.9358 27.8368 35.9417 27.9577 35.9417H28.0623L33.1333 36.8634L33.2202 36.8057C33.624 36.5217 35.1655 35.3928 35.6695 35.0184C35.8095 35.1383 35.9642 35.2478 36.1514 35.338C35.9878 35.8899 35.9775 36.7377 36.6229 37.4094H23.6987V29.908C23.6987 29.1801 23.488 28.4492 23.2375 27.7745H29.0615V27.7745ZM28.3629 16.4559L31.7362 17.6055V22.9349L29.2531 21.618L28.3629 16.4544V16.4559ZM36.592 15.8123C36.592 14.5117 34.4154 13.3414 32.0133 13.3414H31.9985C29.5964 13.3414 27.4213 14.5117 27.4213 15.8123L27.4684 16.1318L28.4278 21.6698L27.464 22.2321L24.972 23.6968H24.9808C24.9808 23.6968 24.4208 23.9868 24.16 24.1644C23.2109 24.8272 23.0091 25.7948 23.5602 26.1943C23.6958 25.4057 24.3162 24.5816 25.476 24.5816C26.3131 24.5816 26.9497 25.0166 27.4655 25.6661C27.5981 25.8304 27.7234 26.0064 27.8398 26.1943C27.9842 26.4325 28.1301 26.6426 28.2731 26.8439H21.8507C22.3223 27.7982 22.7718 28.8087 22.7718 29.9065V44.2021C22.7718 47.6613 25.4171 49.3125 28.2789 49.3125C30.4909 49.3125 30.7886 49.2119 32.0088 50.434C33.2232 49.2119 33.5223 49.3125 35.7358 49.3125C38.5992 49.3125 41.24 47.6613 41.24 44.2021V29.9065C41.24 28.8087 41.6895 27.7982 42.164 26.8439H35.7387C35.8832 26.6426 36.0276 26.4325 36.172 26.1943C36.2899 26.0064 36.4152 25.8304 36.5448 25.6661C37.0636 25.0136 37.7002 24.5816 38.5373 24.5816C39.697 24.5816 40.316 25.4057 40.453 26.1943C41.0042 25.7948 40.8053 24.8272 39.8488 24.1644C39.5954 23.9868 39.0324 23.6968 39.0324 23.6968H39.0427L36.5448 22.2321L35.5869 21.6698L36.5448 16.1318L36.592 15.8123V15.8123Z" fill="#1A1919"/>
</g>
<defs>
<clipPath id="clip0">
<rect x="4" y="7" width="56" height="50.3051" fill="white"/>
</clipPath>
</defs>
</svg>
